<svg xmlns="http://www.w3.org/2000/svg" viewBox="0 0 467.84 112.68" width="467.84" height="112.68" role="img" aria-label="Periplo"><title>Periplo</title><g transform="translate(0 -3.3155078125000017)"><defs><clipPath id="used-ll"><rect x="0" y="45" width="120" height="60"/></clipPath></defs><g transform="translate(-2.5 0)"><path fill="#0B0F17" fill-rule="evenodd" d="M31 16 H65 A29 29 0 0 1 65 74 H31 Z M49 32 H65 A13 13 0 0 1 65 58 H49 Z"/><path fill="#0B0F17" d="M31 16 H49 V104 H31 Z"/><path fill="#0A8C74" clip-path="url(#used-ll)" d="M53 36 H65 A9 9 0 0 1 65 54 H53 Z"/></g><path fill="#0B0F17" d="M134.65242296006943 104.0V36.11776584201389H145.6476128472222V42.4806201171875H147.3049533420139Q149.035615234375 39.45685546875 152.70104953342013 37.102866210937506Q156.36648383246526 34.748876953125006 163.14002387152777 34.748876953125006Q169.09224012586805 34.748876953125006 174.11312662760417 37.65043131510417Q179.13401312934027 40.55198567708334 182.17367919921872 46.10820909288195Q185.2133452690972 51.664432508680555 185.2133452690972 59.53310275607639V61.02910753038195Q185.2133452690972 68.88066786024305 182.1822341579861 74.44544623480903Q179.151123046875 80.010224609375 174.13023654513887 82.91177897135417Q169.10935004340277 85.81333333333333 163.14002387152777 85.81333333333333Q158.60314453125 85.81333333333333 155.50115288628473 84.71822699652778Q152.39916124131943 83.62312065972222 150.50472276475693 81.89857286241319Q148.61028428819444 80.17402506510416 147.50050889756943 78.39203342013889H145.8431684027778V104.0ZM159.83510633680555 76.01593315972222Q166.01463324652778 76.01593315972222 170.0015066189236 72.08406277126736Q173.98837999131945 68.1521923828125 173.98837999131945 60.75288411458334V59.809326171875Q173.98837999131945 52.41001790364584 169.9611726888021 48.478147515190976Q165.9339653862847 44.546277126736115 159.83510633680555 44.546277126736115Q153.75335720486112 44.546277126736115 149.7175949435764 48.478147515190976Q145.68183268229166 52.41001790364584 145.68183268229166 59.809326171875V60.75288411458334Q145.68183268229166 68.1521923828125 149.7175949435764 72.08406277126736Q153.75335720486112 76.01593315972222 159.83510633680555 76.01593315972222ZM218.218203125 85.81333333333333Q210.96553765190973 85.81333333333333 205.458203125 82.73333333333333Q199.9508685980903 79.65333333333334 196.87942355685766 74.03966606987848Q193.807978515625 68.4259988064236 193.807978515625 60.867771809895835V59.694438476562496Q193.807978515625 52.1191015625 196.8390896267361 46.5139892578125Q199.87020073784723 40.908876953125 205.32009141710068 37.828876953125004Q210.76998209635417 34.748876953125006 217.93709798177085 34.748876953125006Q224.989326171875 34.748876953125006 230.2436612955729 37.8582150607639Q235.49799641927083 40.96755316840278 238.43132975260417 46.521335720486114Q241.3646630859375 52.07511827256945 241.3646630859375 59.47200954861111V63.48824490017361H205.16005967881944Q205.37272515190972 69.15930826822917 209.17503879123262 72.5876207139757Q212.97735243055556 76.01593315972222 218.54087456597222 76.01593315972222Q223.97974555121527 76.01593315972222 226.63806396484375 73.63016493055557Q229.29638237847223 71.2443967013889 230.6872629123264 68.21575032552083L239.91998806423612 72.98245279947916Q238.5339892578125 75.64444444444445 235.9428781467014 78.64377658420139Q233.35176703559029 81.64310872395833 229.08376464843752 83.72822102864583Q224.81576226128473 85.81333333333333 218.218203125 85.81333333333333ZM205.25783745659723 55.015750325520834H229.99547200520834Q229.60436089409723 50.19534884982639 226.33982503255208 47.37081298828125Q223.07528917100694 44.546277126736115 217.85643012152778 44.546277126736115Q212.49334526909723 44.546277126736115 209.2520334201389 47.37081298828125Q206.01072157118057 50.19534884982639 205.25783745659723 55.015750325520834ZM251.9857562934028 84.44444444444444V36.11776584201389H262.9809461805556V41.67887098524306H264.6382866753472Q265.76517198350695 38.69420789930556 268.29272515190974 37.30820909288195Q270.8202783203125 35.92221028645834 274.40137152777777 35.92221028645834H280.2167084418403V45.915166015625005H274.12026638454864Q269.3071636284722 45.915166015625005 266.24183268229166 48.502603895399304Q263.1765017361111 51.09004177517361 263.1765017361111 56.49469292534722V84.44444444444444ZM289.23908962673613 84.44444444444444V36.11776584201389H300.4298350694445V84.44444444444444ZM294.8344623480903 30.001796875000004Q291.7153369140625 30.001796875000004 289.5629934353299 27.97045518663195Q287.41064995659724 25.939113498263893 287.41064995659724 22.658652343750006Q287.41064995659724 19.361081271701394 289.5629934353299 17.338294542100698Q291.7153369140625 15.315507812500002 294.8344623480903 15.315507812500002Q298.0513655598959 15.315507812500002 300.15482014973963 17.338294542100698Q302.2582747395834 19.361081271701394 302.2582747395834 22.658652343750006Q302.2582747395834 25.939113498263893 300.15482014973963 27.97045518663195Q298.0513655598959 30.001796875000004 294.8344623480903 30.001796875000004ZM313.78131184895835 104.0V36.11776584201389H324.77650173611113V42.4806201171875H326.4338422309028Q328.1645041232639 39.45685546875 331.82993842230906 37.102866210937506Q335.4953727213542 34.748876953125006 342.2689127604167 34.748876953125006Q348.22112901475697 34.748876953125006 353.2420155164931 37.65043131510417Q358.26290201822917 40.55198567708334 361.30256808810765 46.10820909288195Q364.3422341579861 51.664432508680555 364.3422341579861 59.53310275607639V61.02910753038195Q364.3422341579861 68.88066786024305 361.311123046875 74.44544623480903Q358.2800119357639 80.010224609375 353.25912543402785 82.91177897135417Q348.2382389322917 85.81333333333333 342.2689127604167 85.81333333333333Q337.7320334201389 85.81333333333333 334.63004177517365 84.71822699652778Q331.5280501302084 83.62312065972222 329.63361165364586 81.89857286241319Q327.7391731770834 80.17402506510416 326.62939778645836 78.39203342013889H324.9720572916667V104.0ZM338.9639952256945 76.01593315972222Q345.1435221354167 76.01593315972222 349.1303955078125 72.08406277126736Q353.11726888020837 68.1521923828125 353.11726888020837 60.75288411458334V59.809326171875Q353.11726888020837 52.41001790364584 349.090061577691 48.478147515190976Q345.06285427517366 44.546277126736115 338.9639952256945 44.546277126736115Q332.88224609375004 44.546277126736115 328.8464838324653 48.478147515190976Q324.8107215711806 52.41001790364584 324.8107215711806 59.809326171875V60.75288411458334Q324.8107215711806 68.1521923828125 328.8464838324653 72.08406277126736Q332.88224609375004 76.01593315972222 338.9639952256945 76.01593315972222ZM375.28353407118055 84.44444444444444V16.0H386.4742795138889V84.44444444444444ZM422.6617730034722 85.81333333333333Q415.42621744791666 85.81333333333333 409.71721327039927 82.85433512369792Q404.00820909288194 79.8953369140625 400.74364935980907 74.33055853949654Q397.47908962673614 68.76578016493056 397.47908962673614 61.02910753038195V59.53310275607639Q397.47908962673614 51.79643012152778 400.74364935980907 46.2316517469618Q404.00820909288194 40.666873372395834 409.71721327039927 37.707875162760416Q415.42621744791666 34.748876953125006 422.6617730034722 34.748876953125006Q429.89732855902776 34.748876953125006 435.60633273654514 37.707875162760416Q441.3153369140625 40.666873372395834 444.57989664713546 46.2316517469618Q447.8444563802083 51.79643012152778 447.8444563802083 59.53310275607639V61.02910753038195Q447.8444563802083 68.76578016493056 444.57989664713546 74.33055853949654Q441.3153369140625 79.8953369140625 435.60633273654514 82.85433512369792Q429.89732855902776 85.81333333333333 422.6617730034722 85.81333333333333ZM422.6617730034722 75.85459743923612Q428.81196180555554 75.85459743923612 432.7328363715278 71.89706217447917Q436.6537109375 67.93952690972222 436.6537109375 60.75288411458334V59.809326171875Q436.6537109375 52.62268337673611 432.7731703016493 48.665148111979164Q428.8926296657986 44.70761284722222 422.6617730034722 44.70761284722222Q416.5286941189236 44.70761284722222 412.59926459418404 48.665148111979164Q408.66983506944445 52.62268337673611 408.66983506944445 59.809326171875V60.75288411458334Q408.66983506944445 67.93952690972222 412.59926459418404 71.89706217447917Q416.5286941189236 75.85459743923612 422.6617730034722 75.85459743923612Z"/></g></svg>
